%TF.GenerationSoftware,KiCad,Pcbnew,(7.0.0)*%
%TF.CreationDate,2024-10-28T17:49:39-04:00*%
%TF.ProjectId,Treadmill_V2,54726561-646d-4696-9c6c-5f56322e6b69,rev?*%
%TF.SameCoordinates,Original*%
%TF.FileFunction,Soldermask,Top*%
%TF.FilePolarity,Negative*%
%FSLAX46Y46*%
G04 Gerber Fmt 4.6, Leading zero omitted, Abs format (unit mm)*
G04 Created by KiCad (PCBNEW (7.0.0)) date 2024-10-28 17:49:39*
%MOMM*%
%LPD*%
G01*
G04 APERTURE LIST*
G04 Aperture macros list*
%AMRoundRect*
0 Rectangle with rounded corners*
0 $1 Rounding radius*
0 $2 $3 $4 $5 $6 $7 $8 $9 X,Y pos of 4 corners*
0 Add a 4 corners polygon primitive as box body*
4,1,4,$2,$3,$4,$5,$6,$7,$8,$9,$2,$3,0*
0 Add four circle primitives for the rounded corners*
1,1,$1+$1,$2,$3*
1,1,$1+$1,$4,$5*
1,1,$1+$1,$6,$7*
1,1,$1+$1,$8,$9*
0 Add four rect primitives between the rounded corners*
20,1,$1+$1,$2,$3,$4,$5,0*
20,1,$1+$1,$4,$5,$6,$7,0*
20,1,$1+$1,$6,$7,$8,$9,0*
20,1,$1+$1,$8,$9,$2,$3,0*%
G04 Aperture macros list end*
%ADD10R,1.700000X1.700000*%
%ADD11O,1.700000X1.700000*%
%ADD12O,1.600000X1.600000*%
%ADD13C,1.600000*%
%ADD14C,1.800000*%
%ADD15R,1.800000X1.800000*%
%ADD16R,1.600000X1.600000*%
%ADD17RoundRect,0.102000X-0.810000X0.810000X-0.810000X-0.810000X0.810000X-0.810000X0.810000X0.810000X0*%
%ADD18C,1.824000*%
%ADD19C,1.574000*%
%ADD20RoundRect,0.102000X0.685000X-0.685000X0.685000X0.685000X-0.685000X0.685000X-0.685000X-0.685000X0*%
%ADD21R,1.050000X1.500000*%
%ADD22O,1.050000X1.500000*%
%ADD23RoundRect,0.102000X0.685000X0.685000X-0.685000X0.685000X-0.685000X-0.685000X0.685000X-0.685000X0*%
%ADD24C,2.000000*%
G04 APERTURE END LIST*
D10*
%TO.C,REF\u002A\u002A*%
X203324999Y-66812346D03*
D11*
X205864999Y-66812346D03*
X208404999Y-66812346D03*
X210944999Y-66812346D03*
X213484999Y-66812346D03*
X216024999Y-66812346D03*
%TD*%
D10*
%TO.C,REF\u002A\u002A*%
X203374999Y-63712346D03*
D11*
X205914999Y-63712346D03*
X208454999Y-63712346D03*
X210994999Y-63712346D03*
X213534999Y-63712346D03*
X216074999Y-63712346D03*
%TD*%
D12*
%TO.C,R11*%
X214059999Y-74587346D03*
D13*
X206440000Y-74587347D03*
%TD*%
D14*
%TO.C,D11*%
X191865000Y-69456982D03*
D15*
X189324999Y-69456981D03*
%TD*%
D16*
%TO.C,A1*%
X202484999Y-76252346D03*
D12*
X199944999Y-76252346D03*
X197404999Y-76252346D03*
X194864999Y-76252346D03*
X192324999Y-76252346D03*
X189784999Y-76252346D03*
X187244999Y-76252346D03*
X184704999Y-76252346D03*
X179624999Y-76252346D03*
X177084999Y-76252346D03*
X174544999Y-76252346D03*
X172004999Y-76252346D03*
X169464999Y-76252346D03*
X166924999Y-76252346D03*
X166924999Y-124512346D03*
X169464999Y-124512346D03*
X172004999Y-124512346D03*
X174544999Y-124512346D03*
X177084999Y-124512346D03*
X179624999Y-124512346D03*
X182164999Y-124512346D03*
X184704999Y-124512346D03*
X188764999Y-124512346D03*
X191304999Y-124512346D03*
X193844999Y-124512346D03*
X196384999Y-124512346D03*
X198924999Y-124512346D03*
X201464999Y-124512346D03*
X204004999Y-124512346D03*
X206544999Y-124512346D03*
X209084999Y-124512346D03*
X211624999Y-124512346D03*
%TD*%
D13*
%TO.C,R1*%
X150955000Y-110250000D03*
D12*
X158574999Y-110249999D03*
%TD*%
D17*
%TO.C,trig1*%
X144600000Y-83710000D03*
D18*
X144600000Y-86250000D03*
%TD*%
D13*
%TO.C,R2*%
X150915000Y-106888890D03*
D12*
X158534999Y-106888889D03*
%TD*%
D13*
%TO.C,R6*%
X172635000Y-92008334D03*
D12*
X165014999Y-92008333D03*
%TD*%
D13*
%TO.C,R8*%
X172485000Y-102122222D03*
D12*
X164864999Y-102122221D03*
%TD*%
D19*
%TO.C,SReward1*%
X139745000Y-124284847D03*
X139745000Y-121744847D03*
X139745000Y-119204847D03*
D20*
X139745000Y-116664847D03*
%TD*%
D15*
%TO.C,D8*%
X199134999Y-95024999D03*
D14*
X201675000Y-95025000D03*
%TD*%
D21*
%TO.C,Q8*%
X156729999Y-101899999D03*
D22*
X157999999Y-101899999D03*
X159269999Y-101899999D03*
%TD*%
D15*
%TO.C,D7*%
X199174999Y-84949999D03*
D14*
X201715000Y-84950000D03*
%TD*%
D21*
%TO.C,Q1*%
X150179999Y-77624999D03*
D22*
X151449999Y-77624999D03*
X152719999Y-77624999D03*
%TD*%
D17*
%TO.C,D1*%
X144725000Y-104185000D03*
D18*
X144725000Y-106725000D03*
%TD*%
D21*
%TO.C,Q7*%
X150179999Y-101899999D03*
D22*
X151449999Y-101899999D03*
X152719999Y-101899999D03*
%TD*%
D15*
%TO.C,D5*%
X177549999Y-105224999D03*
D14*
X180090000Y-105225000D03*
%TD*%
D21*
%TO.C,Q6*%
X156729999Y-93808331D03*
D22*
X157999999Y-93808331D03*
X159269999Y-93808331D03*
%TD*%
D13*
%TO.C,R4*%
X172635000Y-85363890D03*
D12*
X165014999Y-85363889D03*
%TD*%
D19*
%TO.C,A2*%
X172827500Y-131005000D03*
X170287500Y-131005000D03*
D23*
X167747500Y-131005000D03*
%TD*%
D13*
%TO.C,R10*%
X172485000Y-108766666D03*
D12*
X164864999Y-108766665D03*
%TD*%
D21*
%TO.C,Q4*%
X156729999Y-85716665D03*
D22*
X157999999Y-85716665D03*
X159269999Y-85716665D03*
%TD*%
D12*
%TO.C,R3*%
X165014999Y-82041667D03*
D13*
X172635000Y-82041668D03*
%TD*%
D15*
%TO.C,D6*%
X177549999Y-115449999D03*
D14*
X180090000Y-115450000D03*
%TD*%
D19*
%TO.C,SAirpuff1*%
X139725000Y-137832347D03*
X139725000Y-135292347D03*
X139725000Y-132752347D03*
D20*
X139725000Y-130212347D03*
%TD*%
D13*
%TO.C,R5*%
X172635000Y-88686112D03*
D12*
X165014999Y-88686111D03*
%TD*%
D19*
%TO.C,A5*%
X199500000Y-131210000D03*
X196960000Y-131210000D03*
D23*
X194420000Y-131210000D03*
%TD*%
%TO.C,A4*%
X185672500Y-131042347D03*
D19*
X188212500Y-131042347D03*
X190752500Y-131042347D03*
%TD*%
D15*
%TO.C,D10*%
X199309999Y-115474999D03*
D14*
X201850000Y-115475000D03*
%TD*%
D15*
%TO.C,D9*%
X199284999Y-105249999D03*
D14*
X201825000Y-105250000D03*
%TD*%
D23*
%TO.C,I2C_LCD1*%
X204920000Y-132875000D03*
D19*
X207460000Y-132875000D03*
X210000000Y-132875000D03*
X212540000Y-132875000D03*
%TD*%
D15*
%TO.C,D4*%
X177424999Y-94999999D03*
D14*
X179965000Y-95000000D03*
%TD*%
D21*
%TO.C,Q3*%
X150179999Y-85716665D03*
D22*
X151449999Y-85716665D03*
X152719999Y-85716665D03*
%TD*%
D19*
%TO.C,A3*%
X181975000Y-131110000D03*
X179435000Y-131110000D03*
D23*
X176895000Y-131110000D03*
%TD*%
D17*
%TO.C,trig2*%
X144535000Y-90342500D03*
D18*
X144535000Y-92882500D03*
%TD*%
D17*
%TO.C,D2*%
X144550000Y-97460000D03*
D18*
X144550000Y-100000000D03*
%TD*%
D13*
%TO.C,R7*%
X172485000Y-98800000D03*
D12*
X164864999Y-98799999D03*
%TD*%
D24*
%TO.C,SWAirpuff1*%
X151600000Y-136512347D03*
X145100000Y-136512347D03*
X151600000Y-132012347D03*
X145100000Y-132012347D03*
%TD*%
D10*
%TO.C,TLick1*%
X138799999Y-73052346D03*
D11*
X138799999Y-70512346D03*
X138799999Y-67972346D03*
%TD*%
D24*
%TO.C,SWReward1*%
X151350000Y-122562347D03*
X144850000Y-122562347D03*
X151350000Y-118062347D03*
X144850000Y-118062347D03*
%TD*%
D21*
%TO.C,Q5*%
X150179999Y-93808331D03*
D22*
X151449999Y-93808331D03*
X152719999Y-93808331D03*
%TD*%
D14*
%TO.C,D3*%
X179865000Y-84775000D03*
D15*
X177324999Y-84774999D03*
%TD*%
D21*
%TO.C,Q2*%
X156729999Y-77624999D03*
D22*
X157999999Y-77624999D03*
X159269999Y-77624999D03*
%TD*%
D13*
%TO.C,R9*%
X172485000Y-105444444D03*
D12*
X164864999Y-105444443D03*
%TD*%
M02*
