M48
; DRILL file {KiCad (7.0.0)} date Mon Oct 28 17:49:42 2024
; FORMAT={-:-/ absolute / inch / decimal}
; #@! TF.CreationDate,2024-10-28T17:49:42-04:00
; #@! TF.GenerationSoftware,Kicad,Pcbnew,(7.0.0)
; #@! TF.FileFunction,Plated,1,2,PTH
FMAT,2
INCH
; #@! TA.AperFunction,Plated,PTH,ViaDrill
T1C0.0157
; #@! TA.AperFunction,Plated,PTH,ComponentDrill
T2C0.0295
; #@! TA.AperFunction,Plated,PTH,ComponentDrill
T3C0.0315
; #@! TA.AperFunction,Plated,PTH,ComponentDrill
T4C0.0354
; #@! TA.AperFunction,Plated,PTH,ComponentDrill
T5C0.0394
; #@! TA.AperFunction,Plated,PTH,ComponentDrill
T6C0.0402
; #@! TA.AperFunction,Plated,PTH,ComponentDrill
T7C0.0433
; #@! TA.AperFunction,Plated,PTH,ComponentDrill
T8C0.0500
%
G90
G05
T1
X6.0906Y-3.6171
X6.0974Y-4.4606
X6.2215Y-3.5512
X6.2874Y-4.1309
X6.3071Y-3.5512
X6.3632Y-4.3406
X6.3711Y-4.2028
X6.4262Y-3.0561
X6.4439Y-4.4596
T2
X5.9126Y-3.0561
X5.9126Y-3.3747
X5.9126Y-3.6932
X5.9126Y-4.0118
X5.9626Y-3.0561
X5.9626Y-3.3747
X5.9626Y-3.6932
X5.9626Y-4.0118
X6.0126Y-3.0561
X6.0126Y-3.3747
X6.0126Y-3.6932
X6.0126Y-4.0118
X6.1705Y-3.0561
X6.1705Y-3.3747
X6.1705Y-3.6932
X6.1705Y-4.0118
X6.2205Y-3.0561
X6.2205Y-3.3747
X6.2205Y-3.6932
X6.2205Y-4.0118
X6.2705Y-3.0561
X6.2705Y-3.3747
X6.2705Y-3.6932
X6.2705Y-4.0118
T3
X5.9415Y-4.2082
X5.9431Y-4.3406
X6.2415Y-4.2082
X6.2431Y-4.3406
X6.4907Y-3.8898
X6.4907Y-4.0206
X6.4907Y-4.1514
X6.4907Y-4.2822
X6.4967Y-3.23
X6.4967Y-3.3608
X6.4967Y-3.4916
X6.4967Y-3.6224
X6.7907Y-3.8898
X6.7907Y-4.0206
X6.7907Y-4.1514
X6.7907Y-4.2822
X6.7967Y-3.23
X6.7967Y-3.3608
X6.7967Y-3.4916
X6.7967Y-3.6224
X8.1276Y-2.9365
X8.4276Y-2.9365
T4
X6.9813Y-3.3376
X6.9852Y-3.7402
X6.9902Y-4.1427
X6.9902Y-4.5453
X7.0813Y-3.3376
X7.0852Y-3.7402
X7.0902Y-4.1427
X7.0902Y-4.5453
X7.4537Y-2.7345
X7.5537Y-2.7345
X7.84Y-3.7411
X7.8415Y-3.3445
X7.8459Y-4.1437
X7.8469Y-4.5463
X7.94Y-3.7411
X7.9415Y-3.3445
X7.9459Y-4.1437
X7.9469Y-4.5463
T5
X5.4646Y-2.6761
X5.4646Y-2.7761
X5.4646Y-2.8761
X6.5719Y-3.0021
X6.5719Y-4.9021
X6.6719Y-3.0021
X6.6719Y-4.9021
X6.7719Y-3.0021
X6.7719Y-4.9021
X6.8719Y-3.0021
X6.8719Y-4.9021
X6.9719Y-3.0021
X6.9719Y-4.9021
X7.0719Y-3.0021
X7.0719Y-4.9021
X7.1719Y-4.9021
X7.2719Y-3.0021
X7.2719Y-4.9021
X7.3719Y-3.0021
X7.4317Y-4.9021
X7.4719Y-3.0021
X7.5317Y-4.9021
X7.5719Y-3.0021
X7.6317Y-4.9021
X7.6719Y-3.0021
X7.7317Y-4.9021
X7.7719Y-3.0021
X7.8317Y-4.9021
X7.8719Y-3.0021
X7.9317Y-4.9021
X7.9719Y-3.0021
X8.0049Y-2.6304
X8.0069Y-2.5084
X8.0317Y-4.9021
X8.1049Y-2.6304
X8.1069Y-2.5084
X8.1317Y-4.9021
X8.2049Y-2.6304
X8.2069Y-2.5084
X8.2317Y-4.9021
X8.3049Y-2.6304
X8.3069Y-2.5084
X8.3317Y-4.9021
X8.4049Y-2.6304
X8.4069Y-2.5084
X8.5049Y-2.6304
X8.5069Y-2.5084
T6
X5.501Y-5.1265
X5.501Y-5.2265
X5.501Y-5.3265
X5.501Y-5.4265
X5.5018Y-4.5931
X5.5018Y-4.6931
X5.5018Y-4.7931
X5.5018Y-4.8931
X6.6042Y-5.1577
X6.7042Y-5.1577
X6.8042Y-5.1577
X6.9644Y-5.1618
X7.0644Y-5.1618
X7.1644Y-5.1618
X7.3099Y-5.1591
X7.4099Y-5.1591
X7.5099Y-5.1591
X7.6543Y-5.1657
X7.7543Y-5.1657
X7.8543Y-5.1657
X8.0677Y-5.2313
X8.1677Y-5.2313
X8.2677Y-5.2313
X8.3677Y-5.2313
T7
X5.7028Y-4.6481
X5.7028Y-4.8253
X5.7126Y-5.1973
X5.7126Y-5.3745
X5.9587Y-4.6481
X5.9587Y-4.8253
X5.9685Y-5.1973
X5.9685Y-5.3745
T8
X5.6904Y-3.5568
X5.6904Y-3.6568
X5.6909Y-3.837
X5.6909Y-3.937
X5.6929Y-3.2957
X5.6929Y-3.3957
X5.6978Y-4.1018
X5.6978Y-4.2018
T0
M30
